<svg width="17" height="16" viewBox="0 0 17 16" fill="none" xmlns="http://www.w3.org/2000/svg">
    <g clip-path="url(#clip0_16396_16478)">
        <path
            d="M8.16672 16C12.585 16 16.1667 12.4183 16.1667 8C16.1667 3.58172 12.585 0 8.16672 0C3.74844 0 0.166718 3.58172 0.166718 8C0.166718 12.4183 3.74844 16 8.16672 16Z"
            fill="#6DA544" />
        <path
            d="M4.68866 9.56512C4.68866 10.1414 5.15585 10.6086 5.73213 10.6086H8.86257C8.86257 11.0888 9.25188 11.4782 9.73213 11.4782H10.7756C11.2559 11.4782 11.6452 11.0888 11.6452 10.6086V9.56512H4.68866Z"
            fill="#F0F0F0" />
        <path
            d="M11.7317 4.52209V6.95687C11.7317 7.34047 11.4196 7.65253 11.036 7.65253V8.69599C11.995 8.69599 12.7751 7.91581 12.7751 6.95687V4.52209H11.7317Z"
            fill="#F0F0F0" />
        <path
            d="M4.25364 6.95669C4.25364 7.34028 3.94158 7.65234 3.55798 7.65234V8.69581C4.51695 8.69581 5.29711 7.91562 5.29711 6.95669V4.52191H4.25364V6.95669Z"
            fill="#F0F0F0" />
        <path d="M11.2104 4.52209H10.1669V6.95688H11.2104V4.52209Z" fill="#F0F0F0" />
        <path
            d="M8.60145 5.91341C8.60145 6.00931 8.52342 6.08731 8.42754 6.08731C8.33166 6.08731 8.25363 6.00928 8.25363 5.91341V4.52209H7.21016V5.91341C7.21016 6.00931 7.13213 6.08731 7.03626 6.08731C6.94038 6.08731 6.86235 6.00928 6.86235 5.91341V4.52209H5.81885V5.91341C5.81885 6.58469 6.36497 7.13081 7.03626 7.13081C7.29479 7.13081 7.53454 7.04956 7.73191 6.91156C7.92926 7.04953 8.16904 7.13081 8.42757 7.13081C8.47963 7.13081 8.53082 7.12716 8.58117 7.12075C8.50723 7.42541 8.23285 7.65253 7.90582 7.65253V8.696C8.86479 8.696 9.64495 7.91581 9.64495 6.95687V5.91341V4.52209H8.60148V5.91341H8.60145Z"
            fill="#F0F0F0" />
        <path d="M7.38407 7.6521H5.81885V8.69557H7.38407V7.6521Z" fill="#F0F0F0" />
    </g>
    <defs>
        <clipPath id="clip0_16396_16478">
            <rect width="16" height="16" fill="white" transform="translate(0.166718)" />
        </clipPath>
    </defs>
</svg>
    
