<svg width="17" height="16" viewBox="0 0 17 16" fill="none" xmlns="http://www.w3.org/2000/svg">
    <g clip-path="url(#clip0_16396_16459)">
        <path
            d="M8.5 16C12.9183 16 16.5 12.4183 16.5 8C16.5 3.58172 12.9183 0 8.5 0C4.08172 0 0.5 3.58172 0.5 8C0.5 12.4183 4.08172 16 8.5 16Z"
            fill="#F0F0F0" />
        <path
            d="M2.15379 3.12866C1.52538 3.94626 1.05154 4.8886 0.775635 5.91232H4.93745L2.15379 3.12866Z"
            fill="#0052B4" />
        <path
            d="M16.2247 5.91247C15.9488 4.88878 15.4749 3.94644 14.8465 3.12885L12.0629 5.91247H16.2247Z"
            fill="#0052B4" />
        <path
            d="M0.775635 10.0869C1.05157 11.1105 1.52542 12.0529 2.15379 12.8704L4.93736 10.0869H0.775635Z"
            fill="#0052B4" />
        <path
            d="M13.3704 1.65321C12.5528 1.02481 11.6105 0.550962 10.5867 0.275024V4.43681L13.3704 1.65321Z"
            fill="#0052B4" />
        <path
            d="M3.6293 14.3451C4.4469 14.9736 5.38924 15.4474 6.41293 15.7233V11.5616L3.6293 14.3451Z"
            fill="#0052B4" />
        <path
            d="M6.4129 0.275024C5.38921 0.550962 4.44687 1.02481 3.6293 1.65318L6.4129 4.43677V0.275024Z"
            fill="#0052B4" />
        <path
            d="M10.5867 15.7233C11.6104 15.4474 12.5528 14.9736 13.3703 14.3452L10.5867 11.5616V15.7233Z"
            fill="#0052B4" />
        <path
            d="M12.0629 10.0869L14.8465 12.8705C15.4749 12.0529 15.9488 11.1105 16.2247 10.0869H12.0629Z"
            fill="#0052B4" />
        <path
            d="M16.4323 6.95653H9.54353H9.5435V0.0677188C9.20191 0.02325 8.85366 0 8.5 0C8.14628 0 7.79809 0.02325 7.45653 0.0677188V6.95647V6.9565H0.567719C0.52325 7.29809 0.5 7.64634 0.5 8C0.5 8.35372 0.52325 8.70191 0.567719 9.04347H7.45647H7.4565V15.9323C7.79809 15.9768 8.14628 16 8.5 16C8.85366 16 9.20191 15.9768 9.54347 15.9323V9.04353V9.0435H16.4323C16.4768 8.70191 16.5 8.35372 16.5 8C16.5 7.64634 16.4768 7.29809 16.4323 6.95653Z"
            fill="#D80027" />
        <path
            d="M10.587 10.0875L14.1568 13.6574C14.321 13.4932 14.4776 13.3217 14.6271 13.1438L11.5708 10.0875H10.587V10.0875Z"
            fill="#D80027" />
        <path
            d="M6.41302 10.0875H6.41296L2.84312 13.6573C3.00724 13.8215 3.17884 13.9781 3.35671 14.1276L6.41302 11.0712V10.0875Z"
            fill="#D80027" />
        <path
            d="M6.41292 5.91274V5.91268L2.84305 2.34277C2.67886 2.5069 2.52223 2.67849 2.3728 2.85637L5.42914 5.91271H6.41292V5.91274Z"
            fill="#D80027" />
        <path
            d="M10.587 5.91345L14.1569 2.34351C13.9927 2.17932 13.8211 2.0227 13.6433 1.87329L10.587 4.92964V5.91345Z"
            fill="#D80027" />
    </g>
    <defs>
        <clipPath id="clip0_16396_16459">
            <rect width="16" height="16" fill="white" transform="translate(0.5)" />
        </clipPath>
    </defs>
</svg>
    
