<svg width="164" height="164" viewBox="0 0 164 164" fill="none" xmlns="http://www.w3.org/2000/svg">
<g id="image-01">
<path id="Icon" d="M110.7 143.5H47.3644C43.2246 143.5 41.1548 143.5 40.1963 142.681C39.3646 141.971 38.9233 140.906 39.0091 139.815C39.108 138.559 40.5716 137.095 43.4989 134.168L101.602 76.0644C104.308 73.3583 105.661 72.0052 107.222 71.4982C108.594 71.0523 110.073 71.0523 111.445 71.4982C113.005 72.0052 114.358 73.3583 117.064 76.0644L143.5 102.5V110.7M110.7 143.5C122.181 143.5 127.922 143.5 132.307 141.266C136.164 139.3 139.3 136.164 141.266 132.307C143.5 127.922 143.5 122.181 143.5 110.7M110.7 143.5H53.3C41.8189 143.5 36.0784 143.5 31.6932 141.266C27.8359 139.3 24.6998 136.164 22.7344 132.307C20.5 127.922 20.5 122.181 20.5 110.7V53.3C20.5 41.8189 20.5 36.0784 22.7344 31.6932C24.6998 27.8359 27.8359 24.6998 31.6932 22.7344C36.0784 20.5 41.8189 20.5 53.3 20.5H110.7C122.181 20.5 127.922 20.5 132.307 22.7344C136.164 24.6998 139.3 27.8359 141.266 31.6932C143.5 36.0784 143.5 41.8189 143.5 53.3V110.7M71.75 58.0833C71.75 65.6312 65.6312 71.75 58.0833 71.75C50.5354 71.75 44.4167 65.6312 44.4167 58.0833C44.4167 50.5354 50.5354 44.4167 58.0833 44.4167C65.6312 44.4167 71.75 50.5354 71.75 58.0833Z" stroke="url(#paint0_linear_2470_253)" stroke-width="9.16201" stroke-linecap="round" stroke-linejoin="round"/>
</g>
<defs>
<linearGradient id="paint0_linear_2470_253" x1="82" y1="20.5" x2="82" y2="143.5" gradientUnits="userSpaceOnUse">
<stop stop-color="#98A2B3"/>
<stop offset="1" stop-color="#98A2B3" stop-opacity="0.72"/>
</linearGradient>
</defs>
</svg>
